<?xml version="1.0" encoding="utf-8"?>
<!-- Generator: Adobe Illustrator 16.0.1, SVG Export Plug-In . SVG Version: 6.00 Build 0)  -->
<!DOCTYPE svg PUBLIC "-//W3C//DTD SVG 1.1//EN" "http://www.w3.org/Graphics/SVG/1.1/DTD/svg11.dtd">
<svg version="1.1" id="Layer_1" xmlns="http://www.w3.org/2000/svg" xmlns:xlink="http://www.w3.org/1999/xlink" x="0px" y="0px"
	 width="512px" height="512px" viewBox="0 0 512 512" enable-background="new 0 0 512 512" xml:space="preserve">
<path fill="#FFFFFF" d="M256,32c-12.032,0-23.854,0.896-35.412,2.606c-0.15-0.391-0.312-0.774-0.491-1.148
	c6.413-5.001,9.775-11.915,8.317-18.776C226.547,5.9,217.217,0,205.197,0c-2.59,0-5.229,0.281-7.84,0.836
	c-15.084,3.207-25.073,14.311-22.741,25.281c1.417,6.669,7.146,11.669,15.082,13.692c-0.016,0.486-0.008,0.975,0.021,1.467
	C89.408,70.041,16,162.445,16,272c0,132.549,107.452,240,240,240c132.549,0,240-107.451,240-240C496,139.452,388.549,32,256,32z
	 M182.441,24.454c-1.353-6.363,6.24-13.595,16.579-15.792C201.086,8.223,203.165,8,205.197,8c8.018,0,14.347,3.432,15.392,8.345
	c0.798,3.755-1.535,7.805-5.693,10.952c-3.517-2.483-8.008-3.563-12.55-2.598c-4.522,0.961-8.174,3.754-10.379,7.428
	C186.875,30.902,183.213,28.085,182.441,24.454z M384.693,400.693c-21.984,21.982-48.605,37.639-77.655,46.075l-21.198-34.384
	l-5.373,39.979C272.422,453.441,264.254,454,256,454c-48.614,0-94.318-18.932-128.693-53.307
	c-21.984-21.983-37.639-48.605-46.077-77.654l34.384-21.199l-39.98-5.373C74.559,288.422,74,280.254,74,272
	c0-48.614,18.931-94.318,53.307-128.693c21.984-21.984,48.606-37.639,77.655-46.078l21.198,34.385l5.374-39.98
	C239.578,90.559,247.746,90,256,90c48.614,0,94.318,18.931,128.693,53.307c21.982,21.984,37.639,48.606,46.075,77.655
	l-34.385,21.199l39.98,5.373C437.441,255.578,438,263.746,438,272C438,320.614,419.068,366.318,384.693,400.693z M380.451,147.549
	l-98.489,74.852c-7.321-3.829-15.438-6.031-23.708-6.363l-25.54-53.59l-1.534,59.332c-6.642,3.268-12.552,7.832-17.438,13.475
	l-31.544-11.182l23.046,24.269c-3.167,6.759-4.933,14.016-5.217,21.412l-53.579,25.533l59.369,1.533
	c0.19,0.385,0.387,0.764,0.585,1.142l-74.852,98.49l98.489-74.854c7.322,3.828,15.437,6.03,23.708,6.362l25.54,53.591l1.533-59.332
	c6.643-3.269,12.553-7.832,17.438-13.476l31.546,11.184l-23.048-24.27c3.168-6.762,4.936-14.016,5.219-21.412l53.577-25.533
	l-59.366-1.535c-0.189-0.383-0.389-0.762-0.586-1.14L380.451,147.549z M256.051,222.267v1.724V222.267L256.051,222.267z
	 M246.021,225.049c3.363-0.715,6.722-1.059,10.028-1.059c2.072,0,4.125,0.135,6.146,0.398l0.047,0.016l-0.006-0.011
	c4.367,0.572,8.589,1.75,12.565,3.448l-35.773,27.188l-27.19,35.776c-1.188-2.797-2.135-5.742-2.79-8.826
	C203.537,256.049,220.09,230.561,246.021,225.049z M281.061,312.942L281.061,312.942L281.061,312.942
	c-4.527,2.771-9.592,4.842-15.08,6.009c-3.362,0.715-6.723,1.059-10.026,1.059c-2.075,0-4.129-0.136-6.154-0.397l-0.039-0.017
	l0.005,0.012c-4.367-0.571-8.587-1.75-12.566-3.447l35.771-27.188l27.19-35.778c1.188,2.797,2.135,5.745,2.79,8.829
	C307.296,282.462,297.923,302.621,281.061,312.942z"/>
</svg>
